<?xml version="1.0" encoding="UTF-8"?>
<svg width="16px" height="16px" viewBox="0 0 16 16" version="1.1" xmlns="http://www.w3.org/2000/svg" xmlns:xlink="http://www.w3.org/1999/xlink">
    <!-- Generator: sketchtool 50.2 (55047) - http://www.bohemiancoding.com/sketch -->
    <title>B17D7FC3-9915-4420-9CAE-6AF067F3DFE4</title>
    <desc>Created with sketchtool.</desc>
    <defs></defs>
    <g id="Caixa-de-Tickets" stroke="none" stroke-width="1" fill="none" fill-rule="evenodd">
        <g id="home-opa-quero-pago" transform="translate(-129.000000, -491.000000)">
            <g id="logo_queropago_list" transform="translate(129.000000, 491.000000)">
                <ellipse id="Oval" fill="#DE9E1F" cx="4.63157895" cy="11.2432432" rx="1" ry="1"></ellipse>
                <path d="M16,8.0112835 C16,3.58815233 12.4169014,0 8,0 C3.58309859,0 0,3.57686883 0,8 C0,12.4231312 3.58309859,16 8,16 L15.2112676,16 L13.1887324,14.0930889 C14.9126761,12.6262341 16,10.448519 16,8.0112835 L16,8.0112835 Z" id="Shape" fill="#FC8400"></path>
                <path d="M5.70947368,11.1048649 C5.36589474,10.8454054 5.33557895,10.5236757 5.57810526,10.1604324 L5.94189474,9.61037838 C6.27536842,9.11221622 6.64926316,9.30940541 6.87157895,9.43394595 C7.23536842,9.63113514 7.57894737,9.79718919 7.98315789,9.79718919 C8.31663158,9.79718919 8.54905263,9.68302703 8.54905263,9.46508108 C8.54905263,8.66594595 5.36589474,8.80086486 5.36589474,6.45535135 C5.36589474,5.31372973 6.11368421,4.42118919 7.31621053,4.16172973 L7.31621053,3.87113514 C7.31621053,3.42486486 7.50821053,3.18616216 7.94273684,3.18616216 L7.99326316,3.18616216 C8.40757895,3.18616216 8.59957895,3.38335135 8.59957895,3.73621622 L8.59957895,4.12021622 C9.25642105,4.21362162 9.80210526,4.4627027 10.0244211,4.608 C10.3578947,4.82594595 10.4286316,5.15805405 10.2366316,5.53167568 L9.93347368,6.12324324 C9.66063158,6.66291892 9.32715789,6.50724324 9.04421053,6.37232432 C8.71073684,6.21664865 8.43789474,6.09210811 8.04378947,6.09210811 C7.71031579,6.09210811 7.488,6.18551351 7.488,6.40345946 C7.488,7.22335135 10.6711579,7.04691892 10.6711579,9.38205405 C10.6711579,10.4717838 9.97389474,11.4992432 8.59957895,11.7483243 L8.59957895,12.0077838 C8.59957895,12.4540541 8.40757895,12.6927568 7.99326316,12.6927568 L7.94273684,12.6927568 C7.50821053,12.6927568 7.31621053,12.4955676 7.31621053,12.1427027 L7.31621053,11.7483243 C6.62905263,11.6341622 5.97221053,11.3020541 5.70947368,11.1048649 Z" id="$" fill="#FFFFFF"></path>
            </g>
        </g>
    </g>
</svg>