<?xml version="1.0" encoding="UTF-8"?>
<svg width="26px" height="19px" viewBox="0 0 26 19" version="1.1" xmlns="http://www.w3.org/2000/svg" xmlns:xlink="http://www.w3.org/1999/xlink">
    <!-- Generator: Sketch 47.1 (45422) - http://www.bohemiancoding.com/sketch -->
    <title>Fill 5</title>
    <desc>Created with Sketch.</desc>
    <defs></defs>
    <g id="Page-1" stroke="none" stroke-width="1" fill="none" fill-rule="evenodd">
        <g id="Parcerias---Vendas" transform="translate(-1317.000000, -22.000000)" fill="#FFFFFF">
            <path d="M1325.5,24.6818182 C1325.65525,24.6818182 1325.79588,24.61875 1325.89769,24.5153409 L1329.4375,20.9397727 L1329.4375,38.8863636 C1329.4375,39.2005682 1329.6895,39.4545455 1330,39.4545455 C1330.3105,39.4545455 1330.5625,39.2005682 1330.5625,38.8863636 L1330.5625,20.9397727 L1334.10231,24.5153409 C1334.20413,24.61875 1334.34475,24.6818182 1334.5,24.6818182 C1334.8105,24.6818182 1335.0625,24.4278409 1335.0625,24.1136364 C1335.0625,23.9573864 1334.9995,23.8153409 1334.89769,23.7119318 L1330.39769,19.1664773 C1330.29588,19.0636364 1330.15525,19 1330,19 C1329.84475,19 1329.70413,19.0636364 1329.60231,19.1664773 L1325.10231,23.7119318 C1325.0005,23.8153409 1324.9375,23.9573864 1324.9375,24.1136364 C1324.9375,24.4278409 1325.1895,24.6818182 1325.5,24.6818182 M1338.4375,26.9545455 L1332.25,26.9545455 C1331.9395,26.9545455 1331.6875,27.2090909 1331.6875,27.5227273 C1331.6875,27.8369318 1331.9395,28.0909091 1332.25,28.0909091 L1337.875,28.0909091 L1337.875,42.8636364 L1322.125,42.8636364 L1322.125,28.0909091 L1327.75,28.0909091 C1328.0605,28.0909091 1328.3125,27.8369318 1328.3125,27.5227273 C1328.3125,27.2090909 1328.0605,26.9545455 1327.75,26.9545455 L1321.5625,26.9545455 C1321.252,26.9545455 1321,27.2090909 1321,27.5227273 L1321,43.4318182 C1321,43.7460227 1321.252,44 1321.5625,44 L1338.4375,44 C1338.748,44 1339,43.7460227 1339,43.4318182 L1339,27.5227273 C1339,27.2090909 1338.748,26.9545455 1338.4375,26.9545455" id="Fill-5" transform="translate(1330.000000, 31.500000) rotate(-270.000000) translate(-1330.000000, -31.500000) "></path>
        </g>
    </g>
</svg>